<mxfile host="app.diagrams.net" modified="2023-05-09T10:59:01.317Z" agent="Mozilla/5.0 (Windows NT 10.0; Win64; x64) AppleWebKit/537.36 (KHTML, like Gecko) Chrome/98.0.4758.82 Safari/537.36" version="21.2.9" etag="-obXy-bq0rWNype_YliP" type="github">
  <diagram name="第 1 页" id="jxD9Dy-q6yzv0DxkEE24">
    <mxGraphModel>
      <root>
        <mxCell id="0" />
        <mxCell id="1" parent="0" />
      </root>
    </mxGraphModel>
  </diagram>
</mxfile>
